<svg width="20" height="20" viewBox="0 0 20 20" fill="none" xmlns="http://www.w3.org/2000/svg">
<path d="M19.6774 9.67742H10.3226V0.322581C10.3226 0.144435 10.1781 0 10 0C9.82185 0 9.67742 0.144435 9.67742 0.322581V9.67742H0.322581C0.144435 9.67742 0 9.82185 0 10C0 10.1781 0.144435 10.3226 0.322581 10.3226H9.67742V19.6774C9.67742 19.8556 9.82185 20 10 20C10.1781 20 10.3226 19.8556 10.3226 19.6774V10.3226H19.6774C19.8556 10.3226 20 10.1781 20 10C20 9.82185 19.8556 9.67742 19.6774 9.67742Z" fill="black"/>
</svg>
