<svg width="17" height="17" viewBox="0 0 17 17"  fill="currentColor"  xmlns="http://www.w3.org/2000/svg">
<g clip-path="url(#clip0)">
<path d="M10.8449 6.15906C10.6249 6.15906 10.4467 6.33733 10.4467 6.5572V14.0818C10.4467 14.3015 10.6249 14.4799 10.8449 14.4799C11.0648 14.4799 11.243 14.3015 11.243 14.0818V6.5572C11.243 6.33733 11.0648 6.15906 10.8449 6.15906Z" fill="black"/>
<path d="M6.14692 6.15906C5.927 6.15906 5.74878 6.33733 5.74878 6.5572V14.0818C5.74878 14.3015 5.927 14.4799 6.14692 14.4799C6.36684 14.4799 6.54506 14.3015 6.54506 14.0818V6.5572C6.54506 6.33733 6.36684 6.15906 6.14692 6.15906Z" fill="black"/>
<path d="M2.72315 5.06094V14.8699C2.72315 15.4497 2.93574 15.9942 3.30712 16.3848C3.67678 16.7766 4.19124 16.999 4.72964 16.9999H12.2623C12.8009 16.999 13.3153 16.7766 13.6848 16.3848C14.0562 15.9942 14.2688 15.4497 14.2688 14.8699V5.06094C15.007 4.86499 15.4854 4.15178 15.3866 3.39426C15.2877 2.63689 14.6425 2.07034 13.8786 2.07018H11.8402V1.57253C11.8426 1.15403 11.6771 0.75217 11.3808 0.45653C11.0845 0.161047 10.6821 -0.00349115 10.2636 -6.976e-05H6.72834C6.30986 -0.00349115 5.90736 0.161047 5.61111 0.45653C5.31485 0.75217 5.14938 1.15403 5.15171 1.57253V2.07018H3.11334C2.34944 2.07034 1.7042 2.63689 1.60529 3.39426C1.50653 4.15178 1.9849 4.86499 2.72315 5.06094ZM12.2623 16.2037H4.72964C4.04893 16.2037 3.5194 15.6189 3.5194 14.8699V5.09593H13.4725V14.8699C13.4725 15.6189 12.943 16.2037 12.2623 16.2037ZM5.94799 1.57253C5.94532 1.36522 6.02681 1.16569 6.17392 1.01935C6.32091 0.873006 6.52089 0.792601 6.72834 0.796183H10.2636C10.4711 0.792601 10.671 0.873006 10.818 1.01935C10.9651 1.16554 11.0466 1.36522 11.044 1.57253V2.07018H5.94799V1.57253ZM3.11334 2.86643H13.8786C14.2744 2.86643 14.5952 3.18727 14.5952 3.58305C14.5952 3.97885 14.2744 4.29968 13.8786 4.29968H3.11334C2.71755 4.29968 2.39672 3.97885 2.39672 3.58305C2.39672 3.18727 2.71755 2.86643 3.11334 2.86643Z" fill="black"/>
<path d="M8.49598 6.15906C8.27606 6.15906 8.09784 6.33733 8.09784 6.5572V14.0818C8.09784 14.3015 8.27606 14.4799 8.49598 14.4799C8.71585 14.4799 8.89406 14.3015 8.89406 14.0818V6.5572C8.89406 6.33733 8.71585 6.15906 8.49598 6.15906Z" fill="black"/>
</g>
<defs>
<clipPath id="clip0">
<rect width="17" height="17" fill="white"/>
</clipPath>
</defs>
</svg>
