<svg width="17" height="17" viewBox="0 0 24 24" fill="none" xmlns="http://www.w3.org/2000/svg">
<path d="M8.98497 5.24251L23.235 5.25754C23.649 5.25754 23.9849 4.92151 23.9849 4.50756C23.9849 4.09354 23.6489 3.75758 23.235 3.75758L8.98497 3.74255C8.57095 3.74255 8.23499 4.07858 8.23499 4.49253C8.23499 4.90649 8.57095 5.24251 8.98497 5.24251Z" fill="black"/>
<path d="M23.2499 11.25L8.99992 11.235C8.5859 11.235 8.24994 11.571 8.24994 11.985C8.24994 12.399 8.58597 12.7349 8.99992 12.7349L23.2499 12.75C23.6639 12.75 23.9999 12.4139 23.9999 12C23.9999 11.586 23.6639 11.25 23.2499 11.25Z" fill="black"/>
<path d="M23.2499 18.75L8.99992 18.735C8.5859 18.735 8.24994 19.071 8.24994 19.485C8.24994 19.8989 8.58597 20.2349 8.99992 20.2349L23.2499 20.25C23.6639 20.25 23.9999 19.9139 23.9999 19.5C24 19.086 23.6639 18.75 23.2499 18.75Z" fill="black"/>
<path d="M2.9925 1.51501C1.33949 1.51501 0 2.85451 0 4.50752C0 6.16053 1.33949 7.50002 2.9925 7.50002C4.64551 7.50002 5.98501 6.16053 5.98501 4.50752C5.98501 2.85451 4.64551 1.51501 2.9925 1.51501ZM2.98502 6.00754C2.14203 6.00754 1.4663 5.35051 1.4663 4.50752C1.4663 3.66452 2.14203 3.00749 2.98502 3.00749C3.82802 3.00749 4.48498 3.66452 4.48498 4.50752C4.48498 5.35051 3.82802 6.00754 2.98502 6.00754Z" fill="black"/>
<path d="M2.9925 9.01501C1.33949 9.01501 0 10.3545 0 12.0075C0 13.6605 1.33949 15 2.9925 15C4.64551 15 5.98501 13.6605 5.98501 12.0075C5.98501 10.3545 4.64551 9.01501 2.9925 9.01501ZM2.98502 13.5075C2.14203 13.5075 1.4663 12.8505 1.4663 12.0075C1.4663 11.1645 2.14203 10.5075 2.98502 10.5075C3.82802 10.5075 4.48505 11.1645 4.48505 12.0075C4.48498 12.8505 3.82802 13.5075 2.98502 13.5075Z" fill="black"/>
<path d="M2.9925 16.5C1.33949 16.5 0 17.8395 0 19.4925C0 21.1455 1.33949 22.485 2.9925 22.485C4.64551 22.485 5.98501 21.1455 5.98501 19.4925C5.98501 17.8395 4.64551 16.5 2.9925 16.5ZM2.98502 20.9925C2.14203 20.9925 1.4663 20.3354 1.4663 19.4924C1.4663 18.6494 2.14203 17.9924 2.98502 17.9924C3.82802 17.9924 4.48505 18.6494 4.48505 19.4924C4.48505 20.3354 3.82802 20.9925 2.98502 20.9925Z" fill="black"/>
</svg>
