<svg width="17" height="17" viewBox="0 0 24 24" fill="none" xmlns="http://www.w3.org/2000/svg">
<path d="M4.04813 4.26933V1.11511H2.64188V4.26933H0V9.76683H2.64188V22.8848H4.04813V9.76683H6.68953V4.26933H4.04813ZM5.28328 8.36058H1.40625V5.67558H5.28328V8.36058Z" fill="black"/>
<path d="M12.7032 10.8248V1.11511H11.2969V10.8248H8.65503V16.3228H11.2969V22.8848H12.7032V16.3228H15.345V10.8248H12.7032ZM13.9388 14.9165H10.0613V12.231H13.9388V14.9165Z" fill="black"/>
<path d="M21.3581 4.26933V1.11511H19.9518V4.26933H17.3104V9.76683H19.9518V22.8848H21.3581V9.76683H24V4.26933H21.3581ZM22.5937 8.36058H18.7167V5.67558H22.5937V8.36058Z" fill="black"/>
</svg>
