<svg width="17" height="17" viewBox="0 0 24 24" fill="none" xmlns="http://www.w3.org/2000/svg">
<path d="M23.97 13.258L21.35 2.768C21.35 2.76702 21.35 2.76702 21.35 2.76598C21.013 1.43098 19.817 0.5 18.441 0.5H18.44H5.56102H5.56003C4.18402 0.5 2.98805 1.43098 2.65102 2.768L0.0309844 13.258C0.00998437 13.337 0 13.418 0 13.5V20.5C0 22.154 1.34602 23.5 3 23.5H21C22.654 23.5 24 22.154 24 20.5V13.5C24 13.418 23.99 13.337 23.97 13.258ZM4.59 3.254C4.70198 2.81 5.10098 2.50002 5.55998 2.50002H18.44C18.898 2.50002 19.296 2.81 19.409 3.25302L20.842 8.99H16C15.448 8.99 15 9.43798 15 9.98998C15 11.644 13.654 12.99 12 12.99C10.346 12.99 9 11.644 9 9.98998C9 9.43798 8.55202 8.99 8.00002 8.99H3.15698L4.59 3.254ZM22 20.5C22 21.051 21.551 21.5 21 21.5H3C2.44898 21.5 2.00002 21.0509 2.00002 20.5V13.623L2.658 10.99H7.101C7.56502 13.269 9.58598 14.99 12 14.99C14.414 14.99 16.435 13.2689 16.899 10.99H21.342L22 13.623V20.5V20.5Z" fill="black"/>
</svg>
