<svg width="17" height="17" viewBox="0 0 17 17" fill="none" xmlns="http://www.w3.org/2000/svg">
<path d="M9.39648 8.5C9.39648 8.00489 8.99511 7.60352 8.5 7.60352C8.00489 7.60352 7.60352 8.00489 7.60352 8.5C7.60352 8.99511 8.00489 9.39648 8.5 9.39648C8.99511 9.39648 9.39648 8.99511 9.39648 8.5Z" fill="black" fill-opacity="0.61"/>
<path d="M9.39648 16.1035C9.39648 15.6084 8.99511 15.207 8.5 15.207C8.00489 15.207 7.60352 15.6084 7.60352 16.1035C7.60352 16.5986 8.00489 17 8.5 17C8.99511 17 9.39648 16.5986 9.39648 16.1035Z" fill="black" fill-opacity="0.61"/>
<path d="M9.39648 0.896484C9.39648 0.40137 8.99511 0 8.5 0C8.00489 0 7.60352 0.40137 7.60352 0.896484C7.60352 1.3916 8.00489 1.79297 8.5 1.79297C8.99511 1.79297 9.39648 1.3916 9.39648 0.896484Z" fill="black" fill-opacity="0.61"/>
</svg>
