<svg width="17" height="17" viewBox="0 0 24 24" fill="none" xmlns="http://www.w3.org/2000/svg">
<g clip-path="url(#clip0)">
<path d="M5.37189 23.5148C5.10895 23.5148 4.84783 23.4327 4.62499 23.2716C4.20988 22.9707 4.01596 22.4536 4.12894 21.9547L5.67293 15.1534L0.436708 10.5614C0.0518103 10.2253 -0.0952271 9.69323 0.062797 9.20634C0.220821 8.72036 0.650764 8.3763 1.15981 8.32924L8.08797 7.70026L10.8271 1.29012C11.0291 0.819161 11.4891 0.515015 12.0001 0.515015C12.5112 0.515015 12.9712 0.819161 13.1731 1.28902L15.9123 7.70026L22.8393 8.32924C23.3495 8.3752 23.7794 8.72036 23.9374 9.20634C24.0955 9.69231 23.9493 10.2253 23.5644 10.5614L18.3282 15.1525L19.8722 21.9536C19.9854 22.4536 19.7913 22.9707 19.3763 23.2707C18.9623 23.5706 18.4103 23.5937 17.9743 23.3316L12.0001 19.7615L6.02596 23.3337C5.82399 23.4536 5.59895 23.5148 5.37189 23.5148V23.5148ZM12.0001 18.2236C12.2272 18.2236 12.452 18.2846 12.6542 18.4045L18.2923 21.7767L16.8351 15.3574C16.7311 14.9005 16.8862 14.4235 17.2393 14.1144L22.1834 9.77837L15.6422 9.18437C15.1712 9.14133 14.7662 8.84525 14.5822 8.41127L12.0001 2.36205L9.41497 8.41219C9.23296 8.84323 8.82792 9.13932 8.35805 9.18235L1.81589 9.77636L6.75987 14.1124C7.114 14.4224 7.26892 14.8985 7.16399 15.3565L5.7079 21.7756L11.346 18.4045C11.548 18.2846 11.7731 18.2236 12.0001 18.2236V18.2236ZM8.03505 7.82422C8.03505 7.82422 8.03505 7.82532 8.03395 7.82624L8.03505 7.82422ZM15.9632 7.82129L15.9643 7.82331C15.9643 7.82221 15.9643 7.82221 15.9632 7.82129Z" fill="black"/>
</g>
<defs>
<clipPath id="clip0">
<rect width="24" height="24" fill="white"/>
</clipPath>
</defs>
</svg>
